<svg width="36" height="36" viewBox="0 0 36 36" fill="none" xmlns="http://www.w3.org/2000/svg">
<rect width="36" height="36" fill="#0A0A0A"/>
<path d="M4.42602 15.79V16.084C4.19269 16.084 3.98736 16.1027 3.81002 16.14C3.63269 16.168 3.51602 16.2613 3.46002 16.42C3.40402 16.5787 3.44602 16.8587 3.58602 17.26L5.04202 21.432L4.94402 21.418L7.00202 15.734L7.28202 15.846L4.72002 23.07C4.68269 23.07 4.64536 23.07 4.60802 23.07C4.57069 23.07 4.52869 23.07 4.48202 23.07L2.18602 16.868C2.03669 16.4947 1.88736 16.2707 1.73802 16.196C1.59802 16.1213 1.47669 16.084 1.37402 16.084V15.79C1.56069 15.818 1.75202 15.8413 1.94802 15.86C2.15336 15.8693 2.37269 15.874 2.60602 15.874C2.89536 15.874 3.19869 15.8647 3.51602 15.846C3.84269 15.8273 4.14602 15.8087 4.42602 15.79ZM12.112 15.79V16.07C11.9347 16.0887 11.7667 16.168 11.608 16.308C11.4587 16.4387 11.3234 16.686 11.202 17.05L9.17202 23.07C9.13469 23.07 9.09736 23.07 9.06002 23.07C9.02269 23.07 8.98069 23.07 8.93402 23.07L6.68002 17.344L7.00202 15.734C7.05802 15.734 7.10936 15.734 7.15602 15.734C7.21202 15.734 7.26802 15.734 7.32402 15.734L9.50802 21.516L9.39602 21.6L10.782 17.386C10.8847 17.0687 10.922 16.8213 10.894 16.644C10.8754 16.4573 10.782 16.322 10.614 16.238C10.4554 16.1447 10.208 16.0887 9.87202 16.07V15.79C10.04 15.7993 10.1847 15.8087 10.306 15.818C10.4274 15.818 10.544 15.8227 10.656 15.832C10.7774 15.832 10.908 15.832 11.048 15.832C11.2627 15.832 11.454 15.8273 11.622 15.818C11.7994 15.8087 11.9627 15.7993 12.112 15.79ZM14.1495 12.29C14.3921 12.29 14.6021 12.3787 14.7795 12.556C14.9568 12.7333 15.0455 12.9433 15.0455 13.186C15.0455 13.4287 14.9568 13.6387 14.7795 13.816C14.6021 13.9933 14.3921 14.082 14.1495 14.082C13.9068 14.082 13.6968 13.9933 13.5195 13.816C13.3421 13.6387 13.2535 13.4287 13.2535 13.186C13.2535 12.9433 13.3421 12.7333 13.5195 12.556C13.6968 12.3787 13.9068 12.29 14.1495 12.29ZM14.8775 15.636V21.698C14.8775 22.09 14.9568 22.356 15.1155 22.496C15.2835 22.636 15.5588 22.706 15.9415 22.706V23C15.7828 22.9907 15.5401 22.9813 15.2135 22.972C14.8961 22.9533 14.5741 22.944 14.2475 22.944C13.9301 22.944 13.6081 22.9533 13.2815 22.972C12.9548 22.9813 12.7121 22.9907 12.5535 23V22.706C12.9361 22.706 13.2068 22.636 13.3655 22.496C13.5335 22.356 13.6175 22.09 13.6175 21.698V17.316C13.6175 16.896 13.5428 16.588 13.3935 16.392C13.2441 16.1867 12.9641 16.084 12.5535 16.084V15.79C12.8521 15.818 13.1415 15.832 13.4215 15.832C13.6921 15.832 13.9488 15.818 14.1915 15.79C14.4435 15.7527 14.6721 15.7013 14.8775 15.636ZM21.275 15.594C21.6017 15.594 21.8864 15.6407 22.129 15.734C22.3717 15.8273 22.5724 15.958 22.731 16.126C22.9084 16.3127 23.0297 16.5553 23.095 16.854C23.1604 17.1527 23.193 17.5213 23.193 17.96V21.698C23.193 22.09 23.2724 22.356 23.431 22.496C23.599 22.636 23.8744 22.706 24.257 22.706V23C24.0984 22.9907 23.8557 22.9813 23.529 22.972C23.2024 22.9533 22.885 22.944 22.577 22.944C22.269 22.944 21.9657 22.9533 21.667 22.972C21.3777 22.9813 21.1584 22.9907 21.009 23V22.706C21.345 22.706 21.583 22.636 21.723 22.496C21.863 22.356 21.933 22.09 21.933 21.698V17.652C21.933 17.3627 21.9144 17.0967 21.877 16.854C21.8397 16.6113 21.7464 16.4153 21.597 16.266C21.4477 16.1167 21.205 16.042 20.869 16.042C20.505 16.042 20.1784 16.154 19.889 16.378C19.609 16.602 19.385 16.91 19.217 17.302C19.0584 17.6847 18.979 18.114 18.979 18.59V21.698C18.979 22.09 19.049 22.356 19.189 22.496C19.329 22.636 19.567 22.706 19.903 22.706V23C19.7537 22.9907 19.5297 22.9813 19.231 22.972C18.9417 22.9533 18.643 22.944 18.335 22.944C18.027 22.944 17.7097 22.9533 17.383 22.972C17.0564 22.9813 16.8137 22.9907 16.655 23V22.706C17.0377 22.706 17.3084 22.636 17.467 22.496C17.635 22.356 17.719 22.09 17.719 21.698V17.316C17.719 16.896 17.6444 16.588 17.495 16.392C17.3457 16.1867 17.0657 16.084 16.655 16.084V15.79C16.9537 15.818 17.243 15.832 17.523 15.832C17.7937 15.832 18.0504 15.818 18.293 15.79C18.545 15.7527 18.7737 15.7013 18.979 15.636V17.288C19.2217 16.6813 19.553 16.2473 19.973 15.986C20.393 15.7247 20.827 15.594 21.275 15.594ZM25.489 15.594C25.8157 15.594 26.1004 15.6407 26.343 15.734C26.5857 15.8273 26.7864 15.958 26.945 16.126C27.1224 16.3127 27.2437 16.5553 27.309 16.854C27.3744 17.1527 27.407 17.5213 27.407 17.96V21.698C27.407 22.09 27.4864 22.356 27.645 22.496C27.813 22.636 28.0884 22.706 28.471 22.706V23C28.3124 22.9907 28.0697 22.9813 27.743 22.972C27.4164 22.9533 27.099 22.944 26.791 22.944C26.483 22.944 26.1797 22.9533 25.881 22.972C25.5917 22.9813 25.3724 22.9907 25.223 23V22.706C25.559 22.706 25.797 22.636 25.937 22.496C26.077 22.356 26.147 22.09 26.147 21.698V17.652C26.147 17.3627 26.1284 17.0967 26.091 16.854C26.0537 16.6113 25.9604 16.4153 25.811 16.266C25.6617 16.1167 25.419 16.042 25.083 16.042C24.719 16.042 24.3924 16.154 24.103 16.378C23.823 16.602 23.599 16.9053 23.431 17.288C23.2724 17.6707 23.193 18.1 23.193 18.576L23.151 17.274C23.403 16.63 23.7437 16.1913 24.173 15.958C24.6024 15.7153 25.041 15.594 25.489 15.594ZM31.3368 13.466V15.804H33.4088V16.084H31.3368V21.502C31.3368 21.9407 31.4161 22.2487 31.5748 22.426C31.7334 22.6033 31.9528 22.692 32.2328 22.692C32.5128 22.692 32.7554 22.58 32.9608 22.356C33.1661 22.1227 33.3434 21.7353 33.4928 21.194L33.7728 21.264C33.6794 21.8053 33.4928 22.2627 33.2128 22.636C32.9421 23.0093 32.5221 23.196 31.9528 23.196C31.6354 23.196 31.3741 23.154 31.1688 23.07C30.9634 22.9953 30.7814 22.8833 30.6228 22.734C30.4174 22.5193 30.2728 22.2627 30.1888 21.964C30.1141 21.6653 30.0768 21.2687 30.0768 20.774V16.084H28.7328V15.804H30.0768V13.662C30.3101 13.6527 30.5341 13.634 30.7488 13.606C30.9634 13.578 31.1594 13.5313 31.3368 13.466Z" fill="white"/>
</svg>
